<?xml version="1.0" encoding="utf-8"?>
<svg viewBox="0.151 0 99.849 92.312" xmlns="http://www.w3.org/2000/svg">
  <path d="M86.1,18.24c.06-.44,.09-.88,.09-1.32,0-5.13-4.17-9.3-9.3-9.3-2.59,0-5,1.05-6.75,2.9-.4-.04-.8-.06-1.21-.06-6.47,0-11.74,5.24-11.79,11.69-3.29,.98-5.63,4.01-5.63,7.56s2.56,6.82,6.01,7.67c-.25,.88-.38,1.79-.38,2.71,0,4.95,3.65,9.05,8.43,9.78-.17,2.61-1.23,4.76-2.67,6.51v-4.92c0-.83-.67-1.5-1.5-1.5h-8.8v-2.87c0-5.44-4.43-9.87-9.87-9.87H26.06c-5.44,0-9.87,4.43-9.87,9.87v10.73l-6.82,3.16c-.53,.25-.87,.78-.87,1.36v18.53c0,.83,.67,1.5,1.5,1.5H61.4c.83,0,1.5-.67,1.5-1.5v-11.06c7-.86,15.74-3.11,19.49-8.88,4.32-1.2,7.39-5.19,7.39-9.73,0-1.83-.5-3.63-1.44-5.18,1.91-1.89,3.01-4.48,3.01-7.19,0-2.28-.74-4.43-2.11-6.19,1.45-1.66,2.25-3.79,2.25-6.03,0-3.64-2.16-6.91-5.4-8.38ZM19.19,47.1c0-3.79,3.08-6.87,6.87-6.87h16.68c3.79,0,6.87,3.08,6.87,6.87v2.86h-4.1v-3.64c0-1.29-1.05-2.34-2.34-2.34H25.63c-1.29,0-2.34,1.05-2.34,2.34v18.83c0,1.01-.69,1.92-1.61,2.11-.63,.13-1.25-.02-1.74-.41-.48-.39-.76-.98-.76-1.6v-18.15Zm12.83,32.28H11.5v-16.07l4.69-2.17v4.11c0,1.53,.68,2.96,1.86,3.92,.91,.74,2.03,1.13,3.19,1.13,.35,0,.7-.04,1.04-.11,2.32-.48,4.01-2.6,4.01-5.05v-8.69l5.72-2.65v25.56Zm1.19-29.38s-.05,.02-.07,.02c-.08,.02-.15,.04-.23,.08,0,0-.01,0-.02,0l-6.59,3.05v-6.17h16.21v2.98h-8.99c-.11,0-.21,.01-.31,.03Zm26.7,29.38h-24.89v-26.41h24.89v6.21c-1.57,1.15-3.19,1.99-4.51,2.58-1.62-2.64-4.52-4.41-7.84-4.41-5.07,0-9.2,4.13-9.2,9.2s4.13,9.2,9.2,9.2c3.73,0,6.94-2.23,8.38-5.43,1.1-.03,2.46-.08,3.97-.2v9.26Zm-7.37-9.15c-1.13,1.52-2.94,2.52-4.98,2.52-3.42,0-6.2-2.78-6.2-6.2s2.78-6.2,6.2-6.2c2.03,0,3.83,.98,4.96,2.5-.59,.21-1,.76-1,1.4v4.58c0,.66,.42,1.21,1.01,1.41Zm33.6-36.55c1.44,1.36,2.23,3.19,2.23,5.17,0,2.25-1.09,4.39-2.91,5.73-.33,.24-.55,.62-.6,1.03s.07,.82,.33,1.14c1.05,1.27,1.61,2.82,1.61,4.48,0,3.35-2.38,6.27-5.65,6.95-.42,.09-.79,.35-1,.73-4.41,7.74-20.66,8.42-25.61,8.44v-2c3.58-1.27,14.58-6.07,14.07-16.91-.04-.8-.75-1.43-1.55-1.43-3.8,0-6.89-3.09-6.89-6.89,0-1.15,.29-2.28,.83-3.27,.27-.49,.21-1.09-.1-1.56-.31-.47-.9-.72-1.45-.66-2.7,0-4.9-2.2-4.9-4.9,0-2.5,1.87-4.59,4.35-4.86,.4-.04,.76-.24,1.01-.56s.36-.71,.31-1.11c-.04-.31-.05-.63-.05-.94,0-4.84,3.94-8.78,8.79-8.78,.53,0,1.05,.04,1.55,.13,.55,.1,1.1-.12,1.45-.55,1.2-1.54,3.01-2.42,4.97-2.42,3.48,0,6.3,2.83,6.3,6.3,0,.62-.09,1.24-.28,1.84-.12,.39-.07,.81,.12,1.16,.2,.35,.53,.62,.92,.72,2.67,.73,4.54,3.19,4.54,5.97,0,1.87-.83,3.62-2.28,4.8-.33,.27-.54,.68-.55,1.11-.02,.43,.15,.85,.47,1.15Z" style="fill: rgb(255, 255, 255);" transform="matrix(1, 0, 0, 1, 0, 1.7763568394002505e-15)"/>
</svg>