<?xml version="1.0" encoding="utf-8"?>
<svg viewBox="0 0 100 125" xmlns="http://www.w3.org/2000/svg">
  <g transform="matrix(1, 0, 0, 1, 0, 1.7763568394002505e-15)">
    <path d="M29.453,76.424c-1.548,0-3.138-0.426-4.581-1.25c-3.891-2.221-5.24-7.091-3.071-11.087c0.33-0.61,1.091-0.833,1.697-0.505   c0.606,0.33,0.833,1.09,0.502,1.697c-1.514,2.789-0.585,6.181,2.112,7.722c1.579,0.902,3.366,1.157,4.9,0.7   c1.205-0.359,2.126-1.103,2.665-2.155c0.378-0.73,0.537-1.547,0.475-2.43c-0.049-0.689,0.47-1.287,1.16-1.336   c0.651-0.038,1.287,0.469,1.336,1.159c0.095,1.329-0.164,2.627-0.746,3.753c-0.845,1.646-2.329,2.858-4.177,3.407   C30.995,76.316,30.229,76.424,29.453,76.424L29.453,76.424z" style="fill: rgb(255, 255, 255);"/>
    <path d="M43.471,66.786c-0.572-0.388-1.349-0.242-1.739,0.33c-0.389,0.57-0.241,1.35,0.33,1.739   c2.479,1.688,3.527,4.37,2.802,7.175c-0.675,2.612-2.681,4.511-4.996,4.726c-1.826,0.17-4.334-0.21-5.385-1.248   c-0.316-0.312-0.776-0.433-1.2-0.321c-0.428,0.114-0.765,0.445-0.884,0.873c-0.877,3.113-2.942,5.639-5.525,6.756   c-1.419,0.612-3.622,1.073-6.079-0.203c-5.092-2.651-3.9-7.934-2.736-10.846c0.091-0.228,0.152-0.379,0.159-0.612   c0.014-0.412-0.176-0.804-0.508-1.048c-0.333-0.245-0.763-0.309-1.15-0.176c-2.71,0.933-5.361,0.765-7.264-0.456   c-1.516-0.973-2.421-2.548-2.619-4.556c-0.225-2.274,0.338-4.114,1.674-5.466c1.337-1.356,3.164-1.879,4.36-1.803   c0.423,1.711,1.291,3.319,2.547,4.64c0.246,0.259,0.576,0.389,0.907,0.389c0.311,0,0.621-0.114,0.862-0.345   c0.5-0.477,0.52-1.268,0.044-1.771c-1.465-1.538-2.266-3.677-2.14-5.717c0.08-1.297,0.562-3.161,2.409-4.679   c2.088-1.714,5.405-2.316,8.067-1.468c1.691,0.541,3.899,1.899,4.817,5.298c0.18,0.668,0.866,1.065,1.535,0.881   c0.667-0.179,1.062-0.866,0.881-1.532c-0.946-3.5-3.245-5.997-6.472-7.03c-3.481-1.109-7.667-0.339-10.417,1.918   c-1.985,1.63-3.164,3.922-3.319,6.457c-0.009,0.15-0.001,0.3-0.003,0.45c-1.671,0.022-4.007,0.674-5.861,2.553   c-1.294,1.311-2.758,3.671-2.385,7.469c0.03,0.309,0.08,0.609,0.135,0.905c-0.015,0.011-0.032,0.011-0.047,0.022   c-2.522,1.862-3.903,4.975-3.604,8.122c0.23,2.407,1.378,4.577,3.232,6.104c1.598,1.314,3.555,2.018,5.588,2.018   c0.289,0,0.579-0.015,0.869-0.045c1.824-0.177,3.501-0.915,4.869-2.092c0.799,1.934,2.268,3.518,4.411,4.633   c1.397,0.727,2.887,1.092,4.388,1.092c1.29,0,2.588-0.269,3.84-0.81c2.798-1.211,5.103-3.682,6.386-6.773   c1.947,0.938,4.432,1.043,5.848,0.909c3.361-0.313,6.249-2.962,7.187-6.595C48.271,72.843,46.809,69.061,43.471,66.786z    M14.412,81.484c-1.083,1.33-2.608,2.152-4.295,2.317c-1.672,0.162-3.316-0.339-4.623-1.416c-1.338-1.103-2.166-2.669-2.333-4.41   c-0.193-2.031,0.582-4.035,2.04-5.398c0.647,1.222,1.568,2.249,2.743,3.004c1.975,1.266,4.48,1.709,7.101,1.299   c-0.437,1.595-0.566,3.081-0.461,4.465C14.526,81.392,14.46,81.424,14.412,81.484z" style="fill: rgb(255, 255, 255);"/>
    <path d="M70.138,15.793v-0.015h0.006l0.01-2.332c-0.179-4.031-3.479-7.257-7.558-7.257c-4.051,0-7.331,3.189-7.546,7.19h-6.797   v2.398L70.138,15.793z" style="fill: rgb(255, 255, 255);"/>
  </g>
  <g transform="matrix(1, 0, 0, 1, 0, 1.7763568394002505e-15)">
    <path d="M78.812,29.325c0,0-1.926-6.301-7.436-5.263c-2.768,0.521-4.533,2.864-4.562,2.903l-2.785,3.513v-5.711   c3.403-0.559,6.013-3.446,6.129-6.983l0,0v-0.015c0.001-0.024,0.003-0.047,0.006-0.07H49.949l0.151,1.272   c0.808,6.798,6.306,11.923,12.79,11.923h0.809L50.122,48.018c-1.346,1.696-1.061,4.163,0.636,5.508   c0.721,0.57,1.58,0.848,2.434,0.848c1.156,0,2.301-0.509,3.073-1.484l10.729-13.529l1.297,6.5   c3.949-1.064,9.107-2.456,13.585-3.663L78.812,29.325z M61.752,28.552c-4.428-0.51-8.112-3.959-9.171-8.575h9.171V28.552z" style="fill: rgb(255, 255, 255);"/>
    <path d="M99.253,88.677c0-0.798-0.2-1.465-0.597-2.024L88.63,70.558l-3.356-14.089l-24.981,6.736l-3.919,3.439   c-0.916,0.911-1.248,2.343-1.248,3.779l-0.089,18.195c0,0.479,0,0.831,0,1.072c0.079,1.266,0.613,2.333,1.604,3.214   c0.991,0.874,2.16,1.27,3.51,1.19c2.456-0.241,3.924-1.511,4.406-3.812l0.302-18.967l11.497-8.693l2.277,9.602   c0.284,1.169,0.952,2.034,0.952,2.034l10.744,17.272c1.029,1.743,2.538,2.536,4.522,2.383c1.347-0.164,2.461-0.735,3.33-1.725   C99.053,91.19,99.411,90.021,99.253,88.677z" style="fill: rgb(255, 255, 255);"/>
    <polygon points="99.263,50.574 96.537,40.464 62.938,49.525 63.806,52.744 29.79,61.916 30.92,66.11 64.937,56.938 65.663,59.636     " style="fill: rgb(255, 255, 255);"/>
  </g>
</svg>