<?xml version="1.0" encoding="utf-8"?>
<svg viewBox="0 0 128 160" xmlns="http://www.w3.org/2000/svg">
  <path d="M126.4502,54.16895s-6.22852-12.33008-10.67871-21.16211v-.001a10.0137,10.0137,0,0,0-14.2373-3.98633l-6.79785,4.2334A9.97265,9.97265,0,0,0,89.543,39.39746L82.0332,52.791c-.00879.01563-.07227.07324-.08008.08887L70.2793,60.1084a3.98739,3.98739,0,0,0-1.77393,2.40094c-2.772-.04468-5.56775-.02692-8.3335.07465a4.0863,4.0863,0,0,0-2.22656.60742A4.25611,4.25611,0,0,0,56.46,65.22363C54.75,69.16992,53.81152,69.999,53.3252,70l-.00958.001H43.80469a2.0001,2.0001,0,0,0-2,2V74H35.79187a1.99994,1.99994,0,0,0-3.99988.001V78a2,2,0,1,0,4,0h6.0127v1.999a2.0001,2.0001,0,0,0,2,2H57.82617v4.02545a6.00729,6.00729,0,0,0-5.61133,4.79877l-1.3584,6.78418A2,2,0,0,0,52.81738,100H72.84375a2,2,0,0,0,1.96094-2.39258l-1.35937-6.78418A6.007,6.007,0,0,0,67.834,86.02441V81.999H71.8418a2.0001,2.0001,0,0,0,2-2V78.18286a6.22828,6.22828,0,0,1,3.58105.6814c1.65723,1.02637,2.57031,3.39551,2.71484,7.04395.03711.9375.04395,1.87988.05176,2.82227a33.21256,33.21256,0,0,0,.85449,8.71c1.12012,4.03809,4.36816,8.35547,9.09961,8.90039a2.04238,2.04238,0,0,0,.23145.0127,1.9708,1.9708,0,0,0,.29529-.02753l.35315,4.97675a3.9312,3.9312,0,0,0,.32141,1.25214,9.12312,9.12312,0,0,0-4.03625,7.57013V121a2.0001,2.0001,0,0,0,2,2h14.01855a2.0001,2.0001,0,0,0,2-2v-8a1.9823,1.9823,0,0,0-.1886-.83636,3.97257,3.97257,0,0,0,.1759-.87457l1.39648-20.17285,3.3183-3.74561,1.08209,23.80518a4.02617,4.02617,0,0,0,.14111.85956A9.1292,9.1292,0,0,0,106.333,120.125V121a2.0001,2.0001,0,0,0,2,2h14.01855a2.0001,2.0001,0,0,0,2-2v-8a1.98127,1.98127,0,0,0-.45837-1.25964,4.01937,4.01937,0,0,0,.0824-.56848l1.91309-42.08105c.002-.04376-.00641-.08624-.00732-.12976A15.98906,15.98906,0,0,0,126.4502,54.16895ZM63.834,86H61.82617V82H63.834Zm5.68945,5.6084L70.40332,96H55.25781l.87891-4.3916A2.00969,2.00969,0,0,1,58.10352,90h9.4541A2.00943,2.00943,0,0,1,69.52344,91.6084ZM60.168,66.72559c.01855-.042.04-.0918.0625-.1416.03027-.001.06055-.001.09082-.002,2.97754-.11133,5.99707-.13184,8.97559-.06641h.04492c.05127,0,.09955-.01111.14984-.01489L70.918,68.96387a3.97092,3.97092,0,0,0,.87665,1.03711H58.588A32.5071,32.5071,0,0,0,60.168,66.72559ZM69.8418,77.999H45.80469V74.001H69.8418Zm15.05762,18.373a29.68507,29.68507,0,0,1-.71-7.6748c-.00781-.98437-.0166-1.96875-.05566-2.94727-.19922-5.05762-1.749-8.51855-4.60547-10.28613a9.91366,9.91366,0,0,0-5.68652-1.28534V72.001a1.98683,1.98683,0,0,0-.36273-1.1438,4.03886,4.03886,0,0,0,3.00629-.48218l6.4223-3.94189L81.26855,70.123a3.98518,3.98518,0,0,0,1.92773,5.22852L86.7959,77.0752a3.95778,3.95778,0,0,0,3.10254.1582,4.03512,4.03512,0,0,0,2.291-2.13281L97.757,62.65979,100.46,68.2793l-10.123,14.4043a6.01187,6.01187,0,0,0-1.06836,3.8877l1.11816,15.75793C87.61823,101.88116,85.641,99.048,84.89941,96.37207Zm4.0069-33.62091,1.122-.68866A4.08128,4.08128,0,0,0,91.57227,60.458l2.67188-5.10156L95.49646,57.96c-.13873.30737-.274.63843-.44861.96381L88.53223,73.47168l-3.60645-1.72754ZM101.32715,119H91.43262a5.13548,5.13548,0,0,1,5.001-4h4.89355Zm2.38379-30.5293a3.99581,3.99581,0,0,0-.9834,2.35059L101.3252,111h-4.8916c-.04669,0-.0918.00629-.13831.007l-1.28259.00177L93.25781,86.27734a2.00347,2.00347,0,0,1,.35449-1.29687l10.125-14.40723a4.00237,4.00237,0,0,0,.32324-4.0293L96.123,50.03418a2.00225,2.00225,0,0,0-1.76855-1.13379h-.03418a1.99935,1.99935,0,0,0-1.77148,1.07227L87.9834,58.625,74.38379,66.96777l-2-3.458,11.61914-7.19629A3.94922,3.94922,0,0,0,85.52148,54.748l7.627-13.60254a2.0115,2.0115,0,0,0,.18945-.46582,5.98016,5.98016,0,0,1,3.2246-3.86719,1.95056,1.95056,0,0,0,.19825-.1084l6.88867-4.29a6.01448,6.01448,0,0,1,8.5498,2.3916c4.44238,8.81738,10.65625,21.11816,10.65723,21.11816v-.001a11.97211,11.97211,0,0,1-1.873,13.05078ZM115.11133,111l-1.2724-27.92969,7.81067-8.81647L119.97559,111h-4.86426Zm5.24023,8H110.457a5.13548,5.13548,0,0,1,5.001-4h4.89355Z" style="fill: rgb(150, 198, 78);" transform="matrix(0.9999999999999999, 0, 0, 0.9999999999999999, 0, 0)"/>
  <path d="M105.17969,18a13.02395,13.02395,0,0,0-26.04785,0,12.74811,12.74811,0,0,0,.59778,3.79517l-3.94055,2.51929a1.99535,1.99535,0,0,0,.62885,3.62994,15.38581,15.38581,0,0,0,20.42194,3.914,1.97488,1.97488,0,0,0,.89655-2.12329A13.00568,13.00568,0,0,0,105.17969,18ZM83.13184,18a9.02011,9.02011,0,0,1,14.1297-7.41321l-13.9834,8.93976A8.77444,8.77444,0,0,1,83.13184,18Zm-2.84277,8.37793,7.81836-4.8291,4.834,7.80762A11.41056,11.41056,0,0,1,80.28906,26.37793Zm15.433-.1283L91.317,19.13556l8.52478-5.45a1.96386,1.96386,0,0,0,.15521-.12292,8.95,8.95,0,0,1-4.2749,12.687Z" style="fill: rgb(150, 198, 78);" transform="matrix(0.9999999999999999, 0, 0, 0.9999999999999999, 0, 0)"/>
  <path d="M38.04785,83.82324a2.0001,2.0001,0,0,0-2,2A4.1139,4.1139,0,0,1,32.01074,90a4.03655,4.03655,0,0,1-3.74609-2.668,2,2,0,0,0-3.64062-.251,2.40086,2.40086,0,0,1-4.30664-.042,2.00007,2.00007,0,0,0-3.43164-.21582,3.31984,3.31984,0,0,1-2.73242,1.46191A3.4367,3.4367,0,0,1,10.792,84.78027a2.00048,2.00048,0,0,0-1.92871-1.999A5.23421,5.23421,0,0,1,9.05371,72.3291a1.99973,1.99973,0,0,0,2.08008-2.8584,3.514,3.514,0,0,1,3.01953-5.02246A3.36034,3.36034,0,0,1,17.209,66.49316a1.99994,1.99994,0,0,0,3.78906-.38965,5.04086,5.04086,0,0,1,9.99023,1.127,2,2,0,0,0,4,0A9.15366,9.15366,0,0,0,25.93457,58a9.05631,9.05631,0,0,0-7.40137,3.92188,7.26863,7.26863,0,0,0-4.37988-1.47363A7.43784,7.43784,0,0,0,6.792,67.94336q0,.33838.02832.66992a9.27649,9.27649,0,0,0,.17676,17.9375,7.40276,7.40276,0,0,0,7.15625,5.73438A7.277,7.277,0,0,0,18.39453,90.917a6.36753,6.36753,0,0,0,7.66406.38086A7.985,7.985,0,0,0,32.01074,94a8.117,8.117,0,0,0,8.03711-8.17676A2.0001,2.0001,0,0,0,38.04785,83.82324Z" style="fill: rgb(150, 198, 78);" transform="matrix(0.9999999999999999, 0, 0, 0.9999999999999999, 0, 0)"/>
  <path d="M24.59766,78.08691c.03027.001.06055.002.0918.002a2,2,0,0,0,.08789-3.998,1.99884,1.99884,0,0,1-1.91113-2.08789A2.0007,2.0007,0,0,0,20.959,69.91406a2.03523,2.03523,0,0,0-2.08887,1.90723,5.99915,5.99915,0,0,0,5.72754,6.26563Z" style="fill: rgb(150, 198, 78);" transform="matrix(0.9999999999999999, 0, 0, 0.9999999999999999, 0, 0)"/>
  <path d="M12.89551,77.81738A2.00035,2.00035,0,0,0,13.81934,81.71a2.00622,2.00622,0,0,1,2.415,1.48438,1.99963,1.99963,0,0,0,3.89063-.92578A6.01219,6.01219,0,0,0,12.89551,77.81738Z" style="fill: rgb(150, 198, 78);" transform="matrix(0.9999999999999999, 0, 0, 0.9999999999999999, 0, 0)"/>
</svg>