<?xml version="1.0" encoding="utf-8"?>
<svg viewBox="-0.61 0 51.01 52.627" xmlns="http://www.w3.org/2000/svg">
  <g>
    <path d="M28.429,22.981c0.307-0.125,0.632-0.459,0.725-0.637l0.154-0.317l1.55-3.342c0.004-0.009,0.004-0.019,0.01-0.027   c0.002-0.002,0.006-0.005,0.008-0.011l0.801-1.731c0.134-0.289,0.475-0.414,0.761-0.278c0.287,0.13,0.414,0.47,0.28,0.758   l-0.611,1.32l6.724,3.923l-2.368-9.958c0,0-1.112-3.634-4.294-3.04c-1.356,0.25-2.508,1.211-3.223,2.593l-2.881,7.906l-6.419,2.286   c-0.594,0.224-1.107,1.028-1.066,1.771c0.062,1.141,1.224,1.907,2.468,1.565L28.429,22.981z" style="fill: rgb(255, 255, 255);"/>
    <rect x="38.816" y="4.94" transform="matrix(0.9721 -0.2346 0.2346 0.9721 -0.3035 9.8258)" width="4.675" height="2.498" style="fill: rgb(255, 255, 255);"/>
    <path d="M8.744,39.426c-0.163,0-0.328-0.048-0.471-0.149c-0.37-0.261-0.458-0.771-0.198-1.142l8.83-12.522   c0.261-0.369,0.771-0.458,1.141-0.198s0.458,0.772,0.198,1.141L9.414,39.08C9.254,39.306,9,39.426,8.744,39.426L8.744,39.426z" style="fill: rgb(255, 255, 255);"/>
    <path d="M8.002,48.467c-0.386,0-0.703-0.298-0.723-0.684c-0.01-0.191,0.058-0.375,0.183-0.521c0.135-0.144,0.308-0.23,0.501-0.24   l0,0c0.424,0,0.742,0.309,0.761,0.685c0.02,0.404-0.289,0.741-0.684,0.76C8.031,48.467,8.002,48.467,8.002,48.467L8.002,48.467z    M7.867,46.069c-0.375,0-0.694-0.309-0.713-0.684c-0.009-0.193,0.048-0.377,0.184-0.521c0.125-0.145,0.298-0.231,0.5-0.241l0,0   c0.424,0,0.732,0.299,0.761,0.685c0.02,0.395-0.289,0.731-0.693,0.75C7.906,46.059,7.876,46.069,7.867,46.069L7.867,46.069z    M7.771,43.661H7.742c-0.385,0-0.694-0.299-0.713-0.684C7,42.582,7.309,42.235,7.704,42.216c0.009,0,0.009,0,0.009,0   c0.424,0,0.732,0.299,0.752,0.685c0.009,0.192-0.049,0.375-0.183,0.52c-0.125,0.145-0.299,0.23-0.501,0.241   C7.781,43.661,7.781,43.661,7.771,43.661L7.771,43.661z M7.617,41.253c-0.385,0-0.703-0.299-0.723-0.684   c-0.009-0.193,0.058-0.377,0.193-0.521c0.125-0.146,0.308-0.231,0.501-0.241l0,0c0.415,0,0.732,0.308,0.751,0.685   c0.02,0.395-0.279,0.741-0.684,0.761C7.655,41.253,7.626,41.253,7.617,41.253L7.617,41.253z" style="fill: rgb(255, 255, 255);"/>
    <path d="M48.713,27.678c-0.344-2.18-1.837-4.376-2.723-5.522l1.406-0.339c1.225-0.296,1.979-1.528,1.683-2.752l-2.271-9.415   c-0.295-1.224-1.527-1.978-2.753-1.682l-4.462,1.077c-1.225,0.295-1.979,1.527-1.683,2.752l2.271,9.414   c0.294,1.225,1.527,1.978,2.751,1.682l1.504-0.363c0.598,0.716,2.494,3.127,2.848,5.373c0.315,2.005-0.036,3.571-1.045,4.656   c-1.232,1.323-3.214,1.732-4.607,1.85L39.196,24.18l-7.575-4.419l-1.27,2.743l1.046,4.8l-7.375,6.925   c-0.528,0.525-0.72,1.353-0.72,2.183l-0.051,10.821c0,0.276,0,0.479,0,0.619c0.044,0.73,0.354,1.347,0.925,1.855   c0.573,0.505,1.249,0.733,2.026,0.688c1.42-0.14,2.267-0.872,2.544-2.202l0.177-11.267l6.118-5.02l1.313,5.544   c0.163,0.675,0.551,1.174,0.551,1.174l6.619,10.39c0.595,1.007,1.466,1.465,2.611,1.376c0.777-0.095,1.421-0.425,1.923-0.996   c0.504-0.576,0.711-1.251,0.619-2.028c0-0.46-0.115-0.846-0.345-1.168l-6.206-9.709l-0.156-0.657   c1.62-0.162,3.836-0.691,5.322-2.284C48.623,32.121,49.101,30.146,48.713,27.678z" style="fill: rgb(255, 255, 255);"/>
    <path d="M31.452,5.334V5.326h0.004l0.006-1.282c-0.1-2.217-1.914-3.991-4.157-3.991c-2.229,0-4.032,1.753-4.15,3.954h-4.431v1.319   L31.452,5.334z" style="fill: rgb(255, 255, 255);"/>
    <path d="M3.06,47.64c-0.144,0-0.289-0.039-0.404-0.125c-0.337-0.223-0.424-0.675-0.192-1.002c0.211-0.318,0.684-0.415,1.002-0.193   c0.327,0.222,0.414,0.675,0.192,1.002C3.522,47.523,3.292,47.64,3.06,47.64L3.06,47.64z M4.418,45.654   c-0.154,0-0.289-0.048-0.414-0.135c-0.154-0.105-0.26-0.27-0.298-0.452c-0.039-0.192,0-0.386,0.115-0.55   c0.212-0.317,0.684-0.404,1.002-0.182c0.154,0.104,0.27,0.269,0.298,0.452c0.039,0.192,0,0.385-0.105,0.549   C4.881,45.529,4.65,45.654,4.418,45.654L4.418,45.654z M5.777,43.661c-0.144,0-0.289-0.039-0.404-0.125   c-0.337-0.223-0.424-0.675-0.193-1.002c0.212-0.318,0.684-0.404,1.002-0.193c0.154,0.105,0.27,0.271,0.298,0.462   c0.039,0.193,0,0.386-0.105,0.54C6.239,43.545,6.008,43.661,5.777,43.661L5.777,43.661z" style="fill: rgb(255, 255, 255);"/>
    <path d="M0.72,43.005c-0.318,0-0.607-0.221-0.694-0.529c-0.106-0.395,0.125-0.789,0.511-0.896c0.375-0.097,0.78,0.135,0.886,0.511   c0.106,0.385-0.125,0.78-0.511,0.887C0.845,42.996,0.787,43.005,0.72,43.005L0.72,43.005z M3.051,42.37   c-0.327,0-0.617-0.222-0.703-0.53c-0.106-0.385,0.125-0.78,0.51-0.886c0.395-0.105,0.79,0.125,0.887,0.511   c0.106,0.375-0.125,0.771-0.511,0.886C3.176,42.36,3.108,42.37,3.051,42.37L3.051,42.37z M5.373,41.744   c-0.328,0-0.617-0.223-0.694-0.539c-0.106-0.386,0.116-0.781,0.501-0.888c0.385-0.096,0.79,0.136,0.886,0.511   c0.106,0.386-0.125,0.781-0.501,0.887C5.498,41.734,5.43,41.744,5.373,41.744L5.373,41.744z" style="fill: rgb(255, 255, 255);"/>
    <path d="M28.074,6.382V6.379h-7.743l0.083,0.7c0.444,3.738,3.468,6.557,7.035,6.557h0.626V10.27   c1.871-0.307,3.306-1.895,3.368-3.84h0.002V6.42c0-0.013,0.002-0.025,0.003-0.038H28.074z M26.822,12.349   c-2.436-0.281-4.461-2.178-5.044-4.717h5.044V12.349z" style="fill: rgb(255, 255, 255);"/>
  </g>
</svg>