<?xml version="1.0" encoding="utf-8"?>
<svg viewBox="0.303 11.804 103.119 79.752" style="" fill-rule="evenodd" clip-rule="evenodd" stroke-linejoin="round" stroke-miterlimit="2" xmlns="http://www.w3.org/2000/svg">
  <rect x="0.5" y="0" width="100" height="100" style="" fill="none"/>
  <path d="M25.12,51.81l0,-9.006c0,-0.013 0,-0.027 0,-0.04l0,-0.372c0,-0.743 0.486,-1.4 1.197,-1.617c2.055,-0.629 6.033,-1.845 6.033,-1.845c0.928,-0.284 1.909,0.238 2.193,1.166c0.283,0.927 -0.238,1.909 -1.166,2.193l-4.744,1.45l0,8.071l8.298,0l0,-9.006c0,-0.013 0.001,-0.027 0.001,-0.04l0,-0.372c0,-0.743 0.486,-1.4 1.197,-1.617c2.054,-0.629 6.033,-1.845 6.033,-1.845c0.928,-0.284 1.909,0.238 2.193,1.166c0.283,0.927 -0.239,1.909 -1.166,2.193l-4.744,1.45l0,8.071l8.298,0l0,-9.006c0,-0.013 0,-0.027 0.001,-0.04l0,-0.372c0,-0.743 0.485,-1.4 1.197,-1.617c2.054,-0.629 6.033,-1.845 6.033,-1.845c0.927,-0.284 1.909,0.238 2.192,1.166c0.284,0.927 -0.238,1.909 -1.165,2.193l-4.744,1.45l0,8.071l8.298,0l0,-9.006c0,-0.013 0,-0.027 0,-0.04l0,-0.372c0,-0.743 0.486,-1.4 1.197,-1.617c2.055,-0.629 6.033,-1.845 6.033,-1.845c0.928,-0.284 1.909,0.238 2.193,1.166c0.284,0.927 -0.238,1.909 -1.166,2.193l-4.743,1.45l0,8.071l8.298,0l0,-9.006c0,-0.013 0,-0.027 0,-0.04l0,-0.372c0,-0.743 0.486,-1.4 1.197,-1.617c2.055,-0.629 6.033,-1.845 6.033,-1.845c0.928,-0.284 1.909,0.238 2.193,1.166c0.283,0.927 -0.239,1.909 -1.166,2.193l-4.744,1.45l0,8.071l14.952,0c1.238,0 2.425,0.492 3.301,1.368c0.875,0.875 1.367,2.063 1.367,3.301l0,0c0,1.238 -0.492,2.425 -1.367,3.301c-0.876,0.875 -2.063,1.367 -3.301,1.367l-11.812,0l-11.812,0l-11.812,0l-11.811,0l-33.417,0c-1.238,0 -2.425,-0.492 -3.301,-1.367c-0.875,-0.876 -1.367,-2.063 -1.367,-3.301l0,0c0,-1.238 0.492,-2.426 1.367,-3.301c0.876,-0.876 2.063,-1.368 3.301,-1.368l14.952,0Z" style="fill: rgb(255, 255, 255);"/>
</svg>