<?xml version="1.0" encoding="utf-8"?>
<svg viewBox="2.616 0 93.384 79.758" xmlns="http://www.w3.org/2000/svg">
  <path d="M86.24,31.5l-5.12,1.28c-.54,.13-.86,.68-.73,1.21,.11,.45,.52,.76,.97,.76,.08,0,.16,0,.24-.03l5.12-1.28c.54-.13,.86-.68,.73-1.21-.13-.54-.68-.86-1.21-.73Z" style="fill: rgb(255, 255, 255);" transform="matrix(0.9999999999999999, 0, 0, 0.9999999999999999, 0, 1.7763568394002505e-15)"/>
  <path d="M90.41,28.4c-.13-.54-.68-.86-1.21-.73l-5.35,1.34c-.54,.13-.86,.68-.73,1.21,.11,.45,.52,.76,.97,.76,.08,0,.16,0,.24-.03l5.35-1.34c.54-.13,.86-.68,.73-1.21Z" style="fill: rgb(255, 255, 255);" transform="matrix(0.9999999999999999, 0, 0, 0.9999999999999999, 0, 1.7763568394002505e-15)"/>
  <path d="M78.92,28.66c.08,0,.16,0,.24-.03l6.11-1.53c.54-.13,.86-.68,.73-1.21s-.68-.86-1.21-.73l-6.11,1.53c-.54,.13-.86,.68-.73,1.21,.11,.45,.52,.76,.97,.76Z" style="fill: rgb(255, 255, 255);" transform="matrix(0.9999999999999999, 0, 0, 0.9999999999999999, 0, 1.7763568394002505e-15)"/>
  <path d="M77.69,27.9c-.25-.98-1.11-1.58-1.97-1.37l-1.4,.35c-.07,.02-.14,.04-.2,.07l-5.37,2.65c-.58,.29-.89,.93-.85,1.64l-27.04,6.76c-.12-.18-.26-.35-.45-.46-.32-.19-.69-.25-1.06-.16l-16.5,4.13c-.38,.1-.67,.41-.74,.8l-.02,.13H12.63c-3.9,0-7.07,3.17-7.07,7.07v7.17s.02,.09,.03,.14c0,.05,0,.1,.01,.15l.57,1.93c.43,1.45,1.47,2.62,2.86,3.21,.64,.27,1.31,.41,1.98,.41,.29,0,.57-.03,.85-.08v13.24c0,.55,.45,1,1,1H29.79c.55,0,1-.45,1-1v-14.61c0-.08-.03-.15-.04-.22l.31-.15c.71,.58,1.59,.9,2.53,.9,.09,0,.17,0,.26,0,1.47-.09,2.74-.94,3.38-2.26l6.42-13.22,.66-.18c1.73-.47,2.8-2.13,2.58-3.88l22.34-5.58c.29,.63,.84,1.05,1.47,1.05,.02,0,.03,0,.05,0l5.99-.19c.07,0,.14-.01,.21-.03l1.4-.35c.86-.21,1.33-1.15,1.09-2.13l-1.72-6.89Zm-7.81,3.25l-.21,.05s-.01-.01-.02-.01l.23-.06s0,.02,0,.03Zm-24.37,9.16s0,0-.01,0c0,0,0,0-.01,0l-3.72,.93-.16-.63-.17-.7,26.9-6.72,.33,1.33-23.16,5.79Zm-13.37,6.75c0,.78-.22,1.54-.64,2.19l-.25-.52c-.06-.12-.14-.22-.23-.3-.03-.03-.07-.04-.1-.07-.07-.05-.13-.09-.21-.12-.05-.02-.09-.02-.14-.03-.07-.02-.14-.03-.22-.03-.05,0-.1,.01-.16,.02-.05,0-.09,0-.14,.02l-1.26,.4,.13-.76,3.22-.81Zm.34,4.18c1.19-1.25,1.78-2.96,1.64-4.68l2.48-.62-3.19,7.2-.94-1.9Zm6.78-11.79l.43,1.73,.45,1.82-12.34,3.08c-.38,.1-.67,.41-.74,.8l-.42,2.42-3.92,1.23,1.26-7.25,15.28-3.82Zm-25.64,9.97h7.26l-.31,1.78-6.95,2.19v-3.97Zm7.61-2h-7.61v-3h8.13l-.52,3Zm-13.68,7.87v-5.8c0-2.45,1.75-4.51,4.07-4.97v9.49l-4.07,1.28Zm2.26,4.95c-.84-.36-1.47-1.06-1.73-1.94l-.29-.99,4.7-1.48s.09,.03,.13,.03c.27,0,.52-.11,.7-.29l16.51-5.19,.42,.86c.6,1.22,.2,2.71-.92,3.47l-.86,.59c-1.2,.82-2.83,.55-3.71-.6-.29-.38-.82-.5-1.25-.28l-11.11,5.73c-.81,.42-1.75,.45-2.59,.09Zm15.4-2.81l.33,1.75c.06,.31,.17,.59,.32,.85h-8.87l6.77-3.49c.43,.39,.93,.69,1.46,.89Zm3.63,2.07c-.27,.13-.57,.12-.84-.01-.26-.14-.45-.38-.5-.67l-.2-1.06c.47-.04,.94-.15,1.39-.33l1.07,1.65-.92,.44Zm-.06,15.15H13.87v-12.61h14.92v12.61Zm6.63-16.22c-.33,.67-.96,1.1-1.7,1.14-.74,.06-1.43-.3-1.83-.93l-1.46-2.25,.05-.03c.68-.47,1.2-1.09,1.55-1.8,.37,.37,.87,.59,1.4,.59,.04,0,.08,0,.12,0,.71-.04,1.33-.44,1.7-1.13l3.41-7.73c.55,.34,1.19,.52,1.85,.52,.2,0,.39-.02,.59-.05l-5.67,11.67Zm8.36-14.46l-2.04,.56c.39-.31,.6-.82,.52-1.35l2.67-.67c-.02,.67-.46,1.27-1.14,1.45Zm32.77-8.67l-5.57,.18-.12-.48h0s-.82-3.27-.82-3.27c0,0,0,0,0,0l-.12-.48,5-2.47,.88-.22,1.63,6.52-.88,.22Z" style="fill: rgb(255, 255, 255);" transform="matrix(0.9999999999999999, 0, 0, 0.9999999999999999, 0, 1.7763568394002505e-15)"/>
  <path d="M12.15,32.81c0,4.2,3.41,7.61,7.61,7.61h3.22c2.42,0,4.39-1.97,4.39-4.39v-4.13h5.53c1.35,0,2.45-1.1,2.45-2.45v-.38c0-1.35-1.1-2.45-2.45-2.45h-5.55c-.08-1.91-.85-3.69-2.21-5.05-1.43-1.44-3.35-2.23-5.39-2.23-4.2,0-7.61,3.41-7.61,7.61v.65s0,0,0,.01v3.28s0,0,0,.01v1.9Zm13.22,3.22c0,1.32-1.07,2.39-2.39,2.39h-3.22c-3.09,0-5.61-2.52-5.61-5.61v-.91h11.22v4.13Zm7.98-6.96v.38c0,.25-.2,.45-.45,.45H14.15v-1.28h18.75c.25,0,.45,.2,.45,.45Zm-13.59-7.72c1.5,0,2.91,.58,3.97,1.64,.98,.98,1.52,2.26,1.61,3.63H14.16c.18-2.94,2.61-5.27,5.59-5.27Z" style="fill: rgb(255, 255, 255);" transform="matrix(0.9999999999999999, 0, 0, 0.9999999999999999, 0, 1.7763568394002505e-15)"/>
</svg>